<?xml version="1.0" encoding="UTF-8"?>
<svg id="Camada_1" xmlns="http://www.w3.org/2000/svg" version="1.1" viewBox="0 0 1161.5 278.89">
  <!-- Generator: Adobe Illustrator 30.1.0, SVG Export Plug-In . SVG Version: 2.1.1 Build 136)  -->
  <defs>
    <style>
      .st0 {
        fill: #2b6ac9;
      }
    </style>
  </defs>
  <g>
    <rect class="st0" x="534.47" width="2.83" height="42.51"/>
    <path class="st0" d="M557.48,47.32c5.32-13.17,12.99-24.92,21.95-36.29-5.76,13.18-12.98,24.47-21.95,36.29Z"/>
    <path class="st0" d="M514.47,46.93c-9.07-11.34-15.55-22.86-21.64-35.83,8.84,11.03,16.66,22.95,21.64,35.83Z"/>
    <path class="st0" d="M596.47,78.14l-33.04-7.74,49.45-29.4c-12.99,3.2-22.57,11.63-33.88,17.71-14.62,7.85-27.94,16.37-43.3,23.49l-31.03-16.88c-14.88-8.1-27.98-17.84-43.98-24.64,3.46,5.44,9.49,6.84,14.61,9.95,11.19,6.79,22.59,12.17,33.55,20.4-21.11,5.81-41.6,7.95-63.17,12.64l71.02,1.45,19.67,28.28,19.5-28.61,29.61.17,40.35-.95-29.36-5.88ZM470.49,81.67l41.63-9.28,18.15,9.41-59.78-.13ZM536.42,109.2l-16.29-23.9c11.09-2.58,21.4-1.13,32.21-.27l-15.91,24.17ZM542.98,81.56l16.25-9.41,41.62,9.45-57.87-.04Z"/>
  </g>
  <g>
    <path class="st0" d="M44.27,108.86c-22.97,40.68-17.47,92.04,10.81,127.6,21.45,25.1,52.47,35.66,83.82,26.94,26.9-7.48,42.16-27.15,56.21-51.88-10.47,42.24-50.7,68.18-92.7,68.68-36.82.44-70.23-17.23-88.15-49.28C-.77,204.06-3.92,172.66,4.81,143.34c13.86-46.54,56.19-76.49,104.67-74.85,22.88.77,44.67,7.52,61.26,23.02,16.48,15.41,22.01,39.84,7.07,48.67-6.11,3.61-14.83,4.55-20.73-.87-4.48-4.12-5.85-11.28-4.9-17.47,3.27-21.34-8.79-39.63-29.89-46.11-29.72-9.13-61.85,4.49-78.02,33.11Z"/>
    <path class="st0" d="M257.55,277.49c-7.87,1.3-66.77,2.49-66.63-.53s19.78-.94,19.78-20.35V92.27c-.01-12.73-7.98-17.23-21.36-20.4l49.21-12.57.19,198.39c.01,11.28,8.31,15.88,18.8,19.81Z"/>
    <path class="st0" d="M505.45,278.89c-1.84.03-3.09-.57-3.44-.94-4.58-4.85,22.14,1.01,22.13-23.06l-.02-73.19c0-4.8-2.87-8.59-5.73-11.5-3.4-3.46-8.23-.88-13.91-3.7,16.45-6.26,30.15-15.4,40.54-28.64,1.01-1.29,6.19-4.65,6.2-1.89l.48,121.87c.05,11.7,7.16,15.92,19.1,19.91l-65.34,1.15Z"/>
    <path class="st0" d="M503.17,144.13c-.88-4.56-5.14-9.34-11.07-11.29-12.65-4.19-25.9,1.3-33.92,12.02-9.17,12.26-13.52,26.36-16.72,40.88l-1.12-53.38c-16.72,4.61-31.95,5.65-47.74,11.76,11.86,2.05,20.87,6.36,20.89,17.71l.07,95.71c0,9.82-8.28,17.37-17.1,17.13-9.95-.25-16.03-8.18-16.11-18.25l-.78-93.45c-.1-11.87-12.48-20.62-23.22-24.67-26.89-10.15-83.23-10.1-92.22,21.79-1.8,6.42-.21,12.27,3.54,16.65,3.32,3.87,8.81,5.23,14.59,4.89,22.6-1.35,3.44-26.92,19.27-39.15,11.48-8.86,28.21-9.01,40.1-.94,7.48,5.07,10.87,13.36,10.54,22.03-.26,7.07-5.36,14.4-12.26,18.92-17.32,11.35-38.06,11.28-58.07,19.36-13.08,5.27-22.54,15.71-25.52,27.29-3.84,14.95-.96,29.27,9.25,39.6,9.66,9.75,23.03,12.61,36.51,12.17,23.12-.77,42.1-14.33,49-36.13,1.54,5.48.54,9.51.86,14.59.64,10.43,8.5,19.31,20.11,19.31,30.76,0,61.03.62,92.51-.96-12.65-4.69-22.77-7.91-22.73-21.99l.16-48.83c.03-12.14,9.34-69.01,27.29-50.87,7.21,7.3,18.59,10.13,27.76,4.89,5.87-3.34,7.37-10.26,6.11-16.8ZM351.98,226.78c-.37,16.63-10.15,38.05-29.88,41.05-12.33,1.87-23.99-1.71-31.53-11.87-10.41-14.06-10.64-47.27,14.57-56l26.26-9.11c8.45-2.93,14.37-7.99,20.45-15.49.57,17.9.54,34.05.14,51.42Z"/>
    <path class="st0" d="M712.58,254.91l-.23-195.84-48.57,12.96c10.58,3.2,20.05,5.54,20.11,16.42l.47,81.67c-5.53-15.02-14.07-27.6-28.57-33.74-29.61-12.51-63.17-.14-78.61,28.4-13.66,25.26-14.17,56.03-2.39,82.03,10.27,22.7,31.33,35.27,56.75,34.38,28.35-.99,41.91-17.78,52-41.16l1.03,38.7c16.05-1.05,30.66,1.59,46.79-1.45-12.94-4.24-18.76-10.44-18.77-22.37ZM673.82,252.03c-7.95,13.39-20.55,20.8-35.18,20.26-13.73-.51-26.04-8.8-33.06-22.12-10.2-19.38-11.62-41.94-7.89-63.75,4.51-26.34,21.01-52.46,48.98-48.9,42.44,5.41,46.42,82.03,27.15,114.5Z"/>
    <path class="st0" d="M1011,257.71V59.09s-45.57,10.53-45.57,10.53c-1.46.33-2.3,1.02-2.35,1.94-.24,3.37,19.71,1.36,19.61,19.16l-.45,78.82c-7.88-22.15-24.9-36.95-48.12-37.73-24.27-1.76-46.04,10.16-57.92,31.23-19.7,32.35-15.76,87.61,19.62,109.66,18.65,11.6,42.47,11.21,60.74.92,12.68-7.14,19.26-19.09,25.39-31.85l1.39,36.93,42.75-.21c1.13-.01,2.21-.03,2.61-.37,5.97-5.02-17.7,1.88-17.7-20.39ZM974.41,249.38c-10.43,21.11-35.23,29.4-54.85,17.29-10.09-6.22-16.81-16.31-20.35-27.72-9.04-29.17-7.07-74.49,19.36-94.11,16.9-12.57,38.61-8.87,51.12,8.16,17.84,24.24,17.57,70.37,4.72,96.38Z"/>
    <path class="st0" d="M850.96,257.53l-.23-86.02c-.13-43.95-71.17-45.41-98.95-31.1-9.51,4.9-16.58,13.26-17.1,24-.26,5.17,1.7,9.89,4.48,12.89,3.44,3.73,8.39,4.62,13.59,4.41,22.02-.86,4.83-26.6,18.7-38.37,12.17-10.33,30.78-9.78,42.81.5,6.21,5.3,8.57,12.98,7.85,21.06-.57,6.11-5.07,12.4-11.12,16.69-18.7,13.21-40.67,12-62.05,21.99-18.35,8.57-27.01,26.47-23.48,45.12,3.54,18.69,18.96,30.48,38.57,32.35,26.13,2.47,48.84-11.36,57.53-36.61l1.91,18.92c1.93,19.16,33.55,17.16,46.93,13.28-11.63-2.58-19.41-7.99-19.44-19.09ZM810.56,257.53c-8.46,10.17-21.55,13.65-33.88,9.92-11.87-3.58-20.18-14.28-21.54-28.65-1.26-13.23,1.32-25.93,11.42-33.71,13.8-10.64,39.09-9.65,55.52-29.52l.34,45.51c.09,13.15-3.57,26.44-11.86,36.44Z"/>
    <path class="st0" d="M1100.82,261.58c-32.82-6.25-49.72-35.88-47.91-67.91l107.14-.28c3.06-9.88,1.15-20.53-4.36-29.49-12.91-20.97-35.54-32.22-60.12-31.87-29.57.41-54.6,17.66-65.15,45.02-7.57,19.6-8.32,40.38-.81,60.06,10.2,26.71,34.38,43.77,63.18,43.88,16.73.07,32.86-4.51,45.4-15.94,10.67-9.75,22.03-22.43,22.36-38.17-11.19,25.09-32.59,39.86-59.72,34.7ZM1076.39,141.07c11.9-7.01,25.66-7.72,37.69-.58,10.54,6.25,17.3,18.42,16.92,32.55-.23,8.76-6.08,16.76-16.35,16.83l-61.85.41c-1.4-20.11,6.8-39.31,23.59-49.21Z"/>
  </g>
</svg>